<mxfile host="Electron" agent="Mozilla/5.0 (Macintosh; Intel Mac OS X 10_15_7) AppleWebKit/537.36 (KHTML, like Gecko) draw.io/26.0.16 Chrome/132.0.6834.196 Electron/34.2.0 Safari/537.36" version="26.0.16">
  <diagram name="Page-1" id="5An7zhzPWtjX78W8Vn6z">
    <mxGraphModel dx="3497" dy="1460" grid="1" gridSize="10" guides="1" tooltips="1" connect="1" arrows="1" fold="1" page="1" pageScale="1" pageWidth="850" pageHeight="1100" math="0" shadow="0">
      <root>
        <mxCell id="0" />
        <mxCell id="1" parent="0" />
        <mxCell id="eMaZXVgZZq-h9FBiVX7F-1" value="" style="outlineConnect=0;dashed=0;verticalLabelPosition=bottom;verticalAlign=top;align=center;html=1;shape=mxgraph.aws3.ec2;fillColor=#F58534;gradientColor=none;" vertex="1" parent="1">
          <mxGeometry x="747.5" y="2400" width="76.5" height="93" as="geometry" />
        </mxCell>
        <mxCell id="eMaZXVgZZq-h9FBiVX7F-2" value="" style="outlineConnect=0;dashed=0;verticalLabelPosition=bottom;verticalAlign=top;align=center;html=1;shape=mxgraph.aws3.postgre_sql_instance;fillColor=#2E73B8;gradientColor=none;" vertex="1" parent="1">
          <mxGeometry x="577.5" y="2610" width="60" height="63" as="geometry" />
        </mxCell>
        <mxCell id="eMaZXVgZZq-h9FBiVX7F-3" value="&lt;div&gt;PostgreSQL Database&amp;nbsp;&amp;nbsp;&lt;/div&gt;&lt;div&gt;(User Data, profiles,resources)&lt;/div&gt;&lt;div&gt;&lt;br&gt;&lt;/div&gt;" style="text;align=center;fontStyle=1;verticalAlign=middle;spacingLeft=3;spacingRight=3;strokeColor=none;rotatable=0;points=[[0,0.5],[1,0.5]];portConstraint=eastwest;html=1;" vertex="1" parent="1">
          <mxGeometry x="567.5" y="2690" width="80" height="26" as="geometry" />
        </mxCell>
        <mxCell id="eMaZXVgZZq-h9FBiVX7F-4" value="" style="outlineConnect=0;dashed=0;verticalLabelPosition=bottom;verticalAlign=top;align=center;html=1;shape=mxgraph.aws3.s3;fillColor=#E05243;gradientColor=none;" vertex="1" parent="1">
          <mxGeometry x="857.5" y="2597" width="76.5" height="93" as="geometry" />
        </mxCell>
        <mxCell id="eMaZXVgZZq-h9FBiVX7F-5" value="&lt;div&gt;S3 Bucket&amp;nbsp;&amp;nbsp;&lt;/div&gt;&lt;div&gt;(Media Files like alerts, shelter photos)&lt;/div&gt;" style="text;align=center;fontStyle=1;verticalAlign=middle;spacingLeft=3;spacingRight=3;strokeColor=none;rotatable=0;points=[[0,0.5],[1,0.5]];portConstraint=eastwest;html=1;" vertex="1" parent="1">
          <mxGeometry x="847.5" y="2700" width="80" height="26" as="geometry" />
        </mxCell>
        <mxCell id="eMaZXVgZZq-h9FBiVX7F-6" style="edgeStyle=orthogonalEdgeStyle;rounded=0;orthogonalLoop=1;jettySize=auto;html=1;exitX=0;exitY=0.21;exitDx=0;exitDy=0;exitPerimeter=0;" edge="1" parent="1" source="eMaZXVgZZq-h9FBiVX7F-7" target="eMaZXVgZZq-h9FBiVX7F-2">
          <mxGeometry relative="1" as="geometry" />
        </mxCell>
        <mxCell id="eMaZXVgZZq-h9FBiVX7F-7" value="" style="outlineConnect=0;dashed=0;verticalLabelPosition=bottom;verticalAlign=top;align=center;html=1;shape=mxgraph.aws3.ec2;fillColor=#F58534;gradientColor=none;" vertex="1" parent="1">
          <mxGeometry x="747.5" y="2400" width="76.5" height="93" as="geometry" />
        </mxCell>
        <mxCell id="eMaZXVgZZq-h9FBiVX7F-8" value="&lt;div&gt;Single Monolithic Architecture&lt;/div&gt;&lt;div&gt;(0â€“100 users, no concurrent load)&lt;/div&gt;" style="text;align=center;fontStyle=1;verticalAlign=middle;spacingLeft=3;spacingRight=3;strokeColor=none;rotatable=0;points=[[0,0.5],[1,0.5]];portConstraint=eastwest;html=1;fontSize=40;" vertex="1" parent="1">
          <mxGeometry x="576.5" y="1350" width="80" height="26" as="geometry" />
        </mxCell>
        <mxCell id="eMaZXVgZZq-h9FBiVX7F-9" style="edgeStyle=orthogonalEdgeStyle;rounded=0;orthogonalLoop=1;jettySize=auto;html=1;exitX=0.5;exitY=1;exitDx=0;exitDy=0;entryX=0.5;entryY=0;entryDx=0;entryDy=0;" edge="1" parent="1" source="eMaZXVgZZq-h9FBiVX7F-10">
          <mxGeometry relative="1" as="geometry">
            <mxPoint x="760" y="2315" as="targetPoint" />
          </mxGeometry>
        </mxCell>
        <mxCell id="eMaZXVgZZq-h9FBiVX7F-10" value="&amp;nbsp;&lt;span style=&quot;background-color: transparent;&quot;&gt;WebSocket&amp;nbsp;&amp;nbsp;&lt;/span&gt;&lt;div&gt;(Real-Time Alerts)&lt;/div&gt;" style="shape=hexagon;perimeter=hexagonPerimeter2;whiteSpace=wrap;html=1;fixedSize=1;" vertex="1" parent="1">
          <mxGeometry x="700" y="2145" width="120" height="80" as="geometry" />
        </mxCell>
        <mxCell id="eMaZXVgZZq-h9FBiVX7F-11" value="&lt;div&gt;Response&lt;/div&gt;&lt;div&gt;&lt;br&gt;&lt;/div&gt;" style="text;html=1;align=center;verticalAlign=middle;whiteSpace=wrap;rounded=0;" vertex="1" parent="1">
          <mxGeometry x="690" y="2250" width="60" height="30" as="geometry" />
        </mxCell>
        <mxCell id="eMaZXVgZZq-h9FBiVX7F-12" value="" style="shape=actor;whiteSpace=wrap;html=1;" vertex="1" parent="1">
          <mxGeometry x="685" y="1650" width="60" height="100" as="geometry" />
        </mxCell>
        <mxCell id="eMaZXVgZZq-h9FBiVX7F-13" style="edgeStyle=orthogonalEdgeStyle;rounded=0;orthogonalLoop=1;jettySize=auto;html=1;entryX=0;entryY=0.75;entryDx=0;entryDy=0;" edge="1" parent="1" source="eMaZXVgZZq-h9FBiVX7F-15" target="eMaZXVgZZq-h9FBiVX7F-12">
          <mxGeometry relative="1" as="geometry" />
        </mxCell>
        <mxCell id="eMaZXVgZZq-h9FBiVX7F-14" style="edgeStyle=orthogonalEdgeStyle;rounded=0;orthogonalLoop=1;jettySize=auto;html=1;" edge="1" parent="1" source="eMaZXVgZZq-h9FBiVX7F-15">
          <mxGeometry relative="1" as="geometry">
            <mxPoint x="330" y="1844.9999999999995" as="targetPoint" />
          </mxGeometry>
        </mxCell>
        <mxCell id="eMaZXVgZZq-h9FBiVX7F-15" value="devices" style="sketch=0;outlineConnect=0;gradientColor=none;fontColor=#545B64;strokeColor=none;fillColor=#879196;dashed=0;verticalLabelPosition=bottom;verticalAlign=top;align=center;html=1;fontSize=12;fontStyle=0;aspect=fixed;shape=mxgraph.aws4.illustration_devices;pointerEvents=1" vertex="1" parent="1">
          <mxGeometry x="435" y="1615" width="100" height="73" as="geometry" />
        </mxCell>
        <mxCell id="eMaZXVgZZq-h9FBiVX7F-16" style="edgeStyle=orthogonalEdgeStyle;rounded=0;orthogonalLoop=1;jettySize=auto;html=1;entryX=1;entryY=0.75;entryDx=0;entryDy=0;" edge="1" parent="1" source="eMaZXVgZZq-h9FBiVX7F-17" target="eMaZXVgZZq-h9FBiVX7F-12">
          <mxGeometry relative="1" as="geometry" />
        </mxCell>
        <mxCell id="eMaZXVgZZq-h9FBiVX7F-17" value="" style="sketch=0;verticalLabelPosition=bottom;sketch=0;aspect=fixed;html=1;verticalAlign=top;strokeColor=none;fillColor=#000000;align=center;outlineConnect=0;pointerEvents=1;shape=mxgraph.citrix2.tablet;" vertex="1" parent="1">
          <mxGeometry x="879.79" y="1595" width="36.925000000000004" height="50" as="geometry" />
        </mxCell>
        <mxCell id="eMaZXVgZZq-h9FBiVX7F-18" style="edgeStyle=orthogonalEdgeStyle;rounded=0;orthogonalLoop=1;jettySize=auto;html=1;" edge="1" parent="1" source="eMaZXVgZZq-h9FBiVX7F-19">
          <mxGeometry relative="1" as="geometry">
            <mxPoint x="715" y="1755" as="targetPoint" />
          </mxGeometry>
        </mxCell>
        <mxCell id="eMaZXVgZZq-h9FBiVX7F-19" value="" style="sketch=0;verticalLabelPosition=bottom;sketch=0;aspect=fixed;html=1;verticalAlign=top;strokeColor=none;fillColor=#000000;align=center;outlineConnect=0;pointerEvents=1;shape=mxgraph.citrix2.mobile;" vertex="1" parent="1">
          <mxGeometry x="900" y="1780" width="25.255" height="50" as="geometry" />
        </mxCell>
        <mxCell id="eMaZXVgZZq-h9FBiVX7F-20" style="edgeStyle=orthogonalEdgeStyle;rounded=0;orthogonalLoop=1;jettySize=auto;html=1;" edge="1" parent="1" source="eMaZXVgZZq-h9FBiVX7F-21">
          <mxGeometry relative="1" as="geometry">
            <mxPoint x="325" y="1844.9999999999995" as="targetPoint" />
          </mxGeometry>
        </mxCell>
        <mxCell id="eMaZXVgZZq-h9FBiVX7F-21" value="" style="outlineConnect=0;dashed=0;verticalLabelPosition=bottom;verticalAlign=top;align=center;html=1;shape=mxgraph.aws3.data_encryption_key;fillColor=#7D7C7C;gradientColor=none;" vertex="1" parent="1">
          <mxGeometry x="610" y="1830" width="46.5" height="60" as="geometry" />
        </mxCell>
        <mxCell id="eMaZXVgZZq-h9FBiVX7F-22" style="edgeStyle=orthogonalEdgeStyle;rounded=0;orthogonalLoop=1;jettySize=auto;html=1;entryX=1;entryY=0.5;entryDx=0;entryDy=0;entryPerimeter=0;" edge="1" parent="1" source="eMaZXVgZZq-h9FBiVX7F-19" target="eMaZXVgZZq-h9FBiVX7F-21">
          <mxGeometry relative="1" as="geometry">
            <Array as="points">
              <mxPoint x="913" y="1860" />
            </Array>
          </mxGeometry>
        </mxCell>
        <mxCell id="eMaZXVgZZq-h9FBiVX7F-23" style="edgeStyle=orthogonalEdgeStyle;rounded=0;orthogonalLoop=1;jettySize=auto;html=1;entryX=0.5;entryY=0;entryDx=0;entryDy=0;" edge="1" parent="1" target="eMaZXVgZZq-h9FBiVX7F-10">
          <mxGeometry relative="1" as="geometry">
            <mxPoint x="760" y="1985" as="sourcePoint" />
            <Array as="points">
              <mxPoint x="760" y="2015" />
              <mxPoint x="760" y="2015" />
            </Array>
          </mxGeometry>
        </mxCell>
        <mxCell id="eMaZXVgZZq-h9FBiVX7F-24" value="Request" style="text;html=1;align=center;verticalAlign=middle;whiteSpace=wrap;rounded=0;" vertex="1" parent="1">
          <mxGeometry x="690" y="2065" width="60" height="30" as="geometry" />
        </mxCell>
        <mxCell id="eMaZXVgZZq-h9FBiVX7F-25" value="Subscribe to Alerts" style="text;html=1;align=center;verticalAlign=middle;whiteSpace=wrap;rounded=0;" vertex="1" parent="1">
          <mxGeometry x="795" y="2070" width="60" height="30" as="geometry" />
        </mxCell>
        <mxCell id="eMaZXVgZZq-h9FBiVX7F-26" value="Real-Time Crisis Update" style="text;html=1;align=center;verticalAlign=middle;whiteSpace=wrap;rounded=0;" vertex="1" parent="1">
          <mxGeometry x="785" y="2240" width="170" height="30" as="geometry" />
        </mxCell>
        <mxCell id="eMaZXVgZZq-h9FBiVX7F-27" value="" style="rounded=0;whiteSpace=wrap;html=1;fillColor=none;" vertex="1" parent="1">
          <mxGeometry x="285" y="1525" width="855" height="460" as="geometry" />
        </mxCell>
        <mxCell id="eMaZXVgZZq-h9FBiVX7F-28" value="EC2,App logic:Auth,Maps.Weather,)" style="text;align=center;fontStyle=1;verticalAlign=middle;spacingLeft=3;spacingRight=3;strokeColor=none;rotatable=0;points=[[0,0.5],[1,0.5]];portConstraint=eastwest;html=1;" vertex="1" parent="1">
          <mxGeometry x="744" y="2505" width="80" height="26" as="geometry" />
        </mxCell>
        <mxCell id="eMaZXVgZZq-h9FBiVX7F-29" style="edgeStyle=orthogonalEdgeStyle;rounded=0;orthogonalLoop=1;jettySize=auto;html=1;entryX=0;entryY=0.5;entryDx=0;entryDy=0;entryPerimeter=0;" edge="1" parent="1" source="eMaZXVgZZq-h9FBiVX7F-2" target="eMaZXVgZZq-h9FBiVX7F-7">
          <mxGeometry relative="1" as="geometry" />
        </mxCell>
        <mxCell id="eMaZXVgZZq-h9FBiVX7F-30" style="edgeStyle=orthogonalEdgeStyle;rounded=0;orthogonalLoop=1;jettySize=auto;html=1;entryX=0;entryY=0.5;entryDx=0;entryDy=0;entryPerimeter=0;" edge="1" parent="1" source="eMaZXVgZZq-h9FBiVX7F-2" target="eMaZXVgZZq-h9FBiVX7F-4">
          <mxGeometry relative="1" as="geometry" />
        </mxCell>
        <mxCell id="eMaZXVgZZq-h9FBiVX7F-31" style="edgeStyle=orthogonalEdgeStyle;rounded=0;orthogonalLoop=1;jettySize=auto;html=1;entryX=1;entryY=0.5;entryDx=0;entryDy=0;entryPerimeter=0;" edge="1" parent="1" source="eMaZXVgZZq-h9FBiVX7F-7" target="eMaZXVgZZq-h9FBiVX7F-4">
          <mxGeometry relative="1" as="geometry" />
        </mxCell>
        <mxCell id="eMaZXVgZZq-h9FBiVX7F-32" style="edgeStyle=orthogonalEdgeStyle;rounded=0;orthogonalLoop=1;jettySize=auto;html=1;entryX=0.375;entryY=1;entryDx=0;entryDy=0;" edge="1" parent="1" source="eMaZXVgZZq-h9FBiVX7F-33" target="eMaZXVgZZq-h9FBiVX7F-10">
          <mxGeometry relative="1" as="geometry" />
        </mxCell>
        <mxCell id="eMaZXVgZZq-h9FBiVX7F-33" value="" style="rounded=0;whiteSpace=wrap;html=1;fillColor=none;" vertex="1" parent="1">
          <mxGeometry x="270" y="2305" width="975" height="455" as="geometry" />
        </mxCell>
        <mxCell id="eMaZXVgZZq-h9FBiVX7F-34" value="" style="outlineConnect=0;dashed=0;verticalLabelPosition=bottom;verticalAlign=top;align=center;html=1;shape=mxgraph.aws3.data_encryption_key;fillColor=#7D7C7C;gradientColor=none;" vertex="1" parent="1">
          <mxGeometry x="615" y="1835" width="46.5" height="60" as="geometry" />
        </mxCell>
        <mxCell id="eMaZXVgZZq-h9FBiVX7F-35" style="edgeStyle=orthogonalEdgeStyle;rounded=0;orthogonalLoop=1;jettySize=auto;html=1;exitX=0.375;exitY=0;exitDx=0;exitDy=0;entryX=0.531;entryY=1.009;entryDx=0;entryDy=0;entryPerimeter=0;" edge="1" parent="1" source="eMaZXVgZZq-h9FBiVX7F-10" target="eMaZXVgZZq-h9FBiVX7F-27">
          <mxGeometry relative="1" as="geometry" />
        </mxCell>
        <mxCell id="eMaZXVgZZq-h9FBiVX7F-36" value="&lt;div&gt;â€¢ User connects from phone/laptop.&lt;/div&gt;&lt;div&gt;â€¢ WebSocket delivers real-time crisis alerts.&lt;/div&gt;&lt;div&gt;â€¢ EC2 handles login, resource lookup, and weather.&lt;/div&gt;&lt;div&gt;â€¢ PostgreSQL stores user data and resource listings.&lt;/div&gt;&lt;div&gt;â€¢ S3 stores media files like shelter photos or alerts.&lt;/div&gt;&lt;div&gt;&lt;br&gt;&lt;/div&gt;" style="text;align=center;fontStyle=1;verticalAlign=middle;spacingLeft=3;spacingRight=3;strokeColor=none;rotatable=0;points=[[0,0.5],[1,0.5]];portConstraint=eastwest;html=1;fontSize=30;" vertex="1" parent="1">
          <mxGeometry x="390" y="2930" width="710" height="281" as="geometry" />
        </mxCell>
      </root>
    </mxGraphModel>
  </diagram>
</mxfile>
